<?xml version="1.0" encoding="UTF-8"?><svg id="a" xmlns="http://www.w3.org/2000/svg" viewBox="0 0 497.31 102.77"><polygon points="48.86 41.23 52.01 27.43 98.36 27.43 104.36 1.78 23.06 1.78 .11 100.78 35.06 100.78 42.86 66.88 80.51 66.88 86.51 41.23 48.86 41.23"/><path d="M332.81,79.78c-4,0-6.88-.98-8.62-2.92-1.75-1.95-2.13-4.62-1.12-8.03l4.59-19.8h18.66l5.4-23.25h-18.66L338.96,.28l-36.75,9.6-3.68,15.9h-18.89L285.56,.28l-36.75,9.6-3.68,15.9h-12.97l-4.4,18.96c-.6-1.53-1.29-3-2.12-4.41-2.95-5-7.27-8.92-12.97-11.77-5.7-2.85-12.6-4.27-20.7-4.27-8.9,0-16.68,1.8-23.33,5.4-4.78,2.59-8.77,5.95-12,10.06l3.98-14.11c-.7-.4-1.6-.72-2.7-.98-1.1-.25-2.5-.38-4.2-.38-5.7,0-10.53,1.35-14.47,4.05-3.95,2.7-7.18,6.45-9.68,11.25-.97,1.86-1.87,3.84-2.7,5.92l3.75-19.72h-31.05l-17.4,75h34.5l7.05-30.6c1.1-4.5,2.67-8.05,4.73-10.65,2.05-2.6,4.4-4.47,7.05-5.62,2.65-1.15,5.32-1.73,8.02-1.73,2.3,0,4.15,.15,5.55,.45,.27,.06,.52,.12,.77,.19-1.41,4.6-2.12,9.64-2.12,15.11,0,7.1,1.7,13.23,5.1,18.38,3.4,5.15,8.12,9.08,14.17,11.77,6.05,2.7,12.92,4.05,20.62,4.05,6.2,0,11.95-.78,17.25-2.33,5.3-1.55,9.85-3.82,13.65-6.82,3.8-3,6.45-6.6,7.95-10.8l-28.8-9.3c-.6,1.8-1.63,3.38-3.08,4.73-1.45,1.35-3.48,2.02-6.08,2.02-1.8,0-3.43-.3-4.88-.9-1.45-.6-2.58-1.6-3.38-3-.8-1.4-1.2-3.25-1.2-5.55,0-.1,0-.2,0-.3h49.5c.6-2,1-4.05,1.2-6.15,.2-2.1,.3-4.1,.3-6,0-3.08-.33-5.97-.98-8.7h10.67l-4.89,21.15c-1.6,7.2-1.43,13.18,.52,17.93,1.95,4.75,5.37,8.3,10.27,10.65,4.9,2.35,10.9,3.52,18,3.52,3.5,0,6.98-.23,10.42-.67,3.45-.45,6.57-1.17,9.38-2.18l3.78-18.64c.15,2.69,.65,5.14,1.54,7.31,1.95,4.75,5.37,8.3,10.27,10.65,4.9,2.35,10.9,3.52,18,3.52,3.5,0,6.98-.23,10.42-.67,3.45-.45,6.57-1.17,9.38-2.18l4.2-20.7c-1,.3-2.08,.55-3.23,.75-1.15,.2-2.83,.3-5.02,.3Zm-147.83-30.6c1.65-1.5,3.77-2.25,6.38-2.25,1.1,0,2.1,.23,3,.68,.9,.45,1.62,1.2,2.18,2.25,.55,1.05,.82,2.53,.82,4.42,0,.8-.03,1.65-.07,2.55,0,.09-.02,.2-.03,.3h-16.67c.2-.71,.41-1.41,.66-2.1,.85-2.4,2.1-4.35,3.75-5.85Zm103.28,21c-.7,3.13-1.03,6.01-1.06,8.67-.87,.24-1.79,.46-2.77,.63-1.15,.2-2.83,.3-5.02,.3-4,0-6.88-.98-8.62-2.92-1.75-1.95-2.13-4.62-1.12-8.03l4.59-19.8h18.9l-4.89,21.15Z"/><path d="M393.71,72.88c-.6,1.8-1.63,3.38-3.08,4.73-1.45,1.35-3.48,2.02-6.08,2.02-1.8,0-3.43-.3-4.88-.9-1.45-.6-2.58-1.6-3.38-3-.8-1.4-1.2-3.25-1.2-5.55,0-.1,0-.2,0-.3h49.5c.6-2,1-4.05,1.2-6.15,.2-2.1,.3-4.1,.3-6,0-6.6-1.48-12.4-4.43-17.4-2.95-5-7.27-8.92-12.97-11.77-5.7-2.85-12.6-4.27-20.7-4.27-8.9,0-16.68,1.8-23.33,5.4-6.65,3.6-11.8,8.68-15.45,15.23-3.65,6.55-5.48,14.23-5.48,23.02,0,7.1,1.7,13.23,5.1,18.38,3.4,5.15,8.12,9.08,14.17,11.77,6.05,2.7,12.92,4.05,20.62,4.05,6.2,0,11.95-.78,17.25-2.33,5.3-1.55,9.85-3.82,13.65-6.82,3.8-3,6.45-6.6,7.95-10.8l-28.8-9.3Zm-12.68-23.7c1.65-1.5,3.77-2.25,6.38-2.25,1.1,0,2.1,.23,3,.68,.9,.45,1.62,1.2,2.18,2.25,.55,1.05,.82,2.53,.82,4.42,0,.8-.03,1.65-.07,2.55,0,.09-.02,.2-.03,.3h-16.67c.2-.71,.41-1.41,.66-2.1,.85-2.4,2.1-4.35,3.75-5.85Z"/><path d="M488.96,53.83l7.95-28.2c-.7-.4-1.6-.72-2.7-.98-1.1-.25-2.5-.38-4.2-.38-5.7,0-10.53,1.35-14.47,4.05-3.95,2.7-7.18,6.45-9.67,11.25-.97,1.86-1.87,3.84-2.7,5.92l3.75-19.72h-31.05l-17.4,75h34.5l7.05-30.6c1.1-4.5,2.67-8.05,4.73-10.65,2.05-2.6,4.4-4.47,7.05-5.62,2.65-1.15,5.33-1.73,8.02-1.73,2.3,0,4.15,.15,5.55,.45,1.4,.3,2.6,.7,3.6,1.2Z"/><path d="M491.17,89.51c-.93-.52-2-.78-3.21-.78s-2.27,.26-3.2,.78c-.94,.52-1.67,1.24-2.2,2.15-.53,.91-.79,1.97-.79,3.19s.26,2.26,.79,3.18,1.26,1.64,2.2,2.16c.94,.52,2,.78,3.2,.78s2.28-.26,3.21-.78c.93-.52,1.66-1.24,2.19-2.16s.79-1.98,.79-3.18-.26-2.27-.79-3.19c-.53-.91-1.26-1.63-2.19-2.15Zm.83,7.73c-.39,.7-.93,1.24-1.62,1.63-.69,.39-1.5,.58-2.42,.58s-1.72-.19-2.41-.58c-.7-.39-1.24-.93-1.63-1.63-.39-.7-.58-1.49-.58-2.39s.19-1.7,.58-2.39c.39-.7,.93-1.24,1.63-1.63,.7-.39,1.5-.58,2.41-.58s1.73,.19,2.42,.58c.69,.39,1.23,.93,1.62,1.63,.39,.7,.58,1.49,.58,2.39s-.2,1.7-.58,2.39Z"/><path d="M490.11,95.25c.47-.38,.7-.91,.7-1.59,0-.42-.1-.79-.31-1.12-.21-.32-.49-.58-.84-.76-.35-.18-.75-.27-1.21-.27h-3.17v6.55h1.84v-2.25h.48l1.17,2.25h2.18l-1.58-2.43c.28-.09,.52-.22,.74-.39Zm-2.99-2.22h.9c.29,0,.52,.06,.68,.17,.17,.11,.25,.31,.25,.6s-.08,.47-.25,.59c-.17,.12-.4,.18-.68,.18h-.9v-1.55Z"/></svg>